<svg width="1195" height="35" viewBox="0 0 1195 35" fill="none" xmlns="http://www.w3.org/2000/svg">
<path d="M605.377 5.70361C605.573 5.70362 605.767 5.75209 605.944 5.84542C606.121 5.93874 606.277 6.07451 606.399 6.2426L606.496 6.3966L610.412 13.5261C610.541 13.7598 610.605 14.0289 610.598 14.3013C610.59 14.5737 610.511 14.8381 610.371 15.0632L610.266 15.21L599.129 28.8031C598.922 29.0335 598.676 29.2165 598.403 29.3414C598.131 29.4663 597.838 29.5305 597.543 29.5303C597.021 29.5303 596.518 29.3307 596.094 28.9357L595.917 28.756L584.82 15.21C584.653 15.0066 584.543 14.755 584.503 14.4853C584.463 14.2156 584.495 13.9391 584.595 13.6886L584.673 13.5246L588.607 6.3638L588.691 6.23547C588.751 6.15428 588.818 6.08063 588.893 6.01588L589.009 5.92463L589.124 5.85333L589.19 5.82054L589.268 5.78489L589.41 5.73926L589.556 5.71074L589.709 5.70361H605.377ZM593.775 11.3259C593.478 11.1318 593.123 11.0743 592.787 11.166C592.452 11.2577 592.163 11.4911 591.985 11.815L591.202 13.2409L591.123 13.4063C591.023 13.6579 590.992 13.9357 591.033 14.2063C591.074 14.4769 591.185 14.7289 591.354 14.932L593.966 18.069L594.083 18.1944C594.325 18.4203 594.634 18.542 594.952 18.5368C595.27 18.5315 595.575 18.3997 595.81 18.1659L595.924 18.0376C596.131 17.7737 596.242 17.4363 596.237 17.089C596.233 16.7416 596.112 16.4081 595.898 16.1511L593.938 13.7984L594.223 13.2808L594.295 13.1339C594.426 12.8154 594.445 12.4553 594.35 12.122C594.254 11.7887 594.049 11.5055 593.775 11.3259Z" fill="#6E0000"/>
<line x1="0.873047" y1="14.6848" x2="567.526" y2="14.6848" stroke="#6E0000" stroke-width="2"/>
<path d="M627.571 14.2588L1194.22 14.2588" stroke="#6E0000" stroke-width="2"/>
</svg>
