<svg width="217" height="217" viewBox="0 0 217 217" fill="none" xmlns="http://www.w3.org/2000/svg">
<path d="M108.5 207.958C94.9118 207.957 81.6373 203.874 70.3977 196.238C59.158 188.602 50.4716 177.765 45.4647 165.133C40.4578 152.501 39.3614 138.656 42.3176 125.393C45.2739 112.13 52.1463 100.061 62.044 90.7512C74.1779 79.3316 103.979 58.7708 99.4584 13.5625C153.708 49.7292 180.833 85.8958 126.583 140.146C135.625 140.146 149.188 140.146 171.792 117.813C174.233 124.802 176.313 132.316 176.313 140.146C176.313 158.131 169.168 175.379 156.451 188.096C143.733 200.814 126.485 207.958 108.5 207.958Z" fill="#780015"/>
</svg>
