<svg width="217" height="217" viewBox="0 0 217 217" fill="none" xmlns="http://www.w3.org/2000/svg">
<path d="M84.0927 138.107C83.8067 139.032 84.8729 139.783 85.6481 139.202L107.895 122.517C108.253 122.248 108.746 122.25 109.102 122.522L130.88 139.152C131.654 139.743 132.73 138.993 132.442 138.063L124.074 110.965C123.952 110.569 124.086 110.139 124.412 109.884L146.914 92.203C147.661 91.6163 147.246 90.4167 146.296 90.4167H119.174C118.74 90.4167 118.356 90.1371 118.222 89.7245L109.452 62.6158C109.153 61.6929 107.847 61.6929 107.549 62.6158L98.7784 89.7245C98.6449 90.1371 98.2607 90.4167 97.827 90.4167H70.6636C69.7183 90.4167 69.3008 91.607 70.0389 92.1975L92.1457 109.883C92.4665 110.14 92.5977 110.566 92.4765 110.959L84.0927 138.107ZM108.745 198.855C108.585 198.896 108.416 198.896 108.256 198.855C87.4192 193.549 70.21 181.55 56.6283 162.859C42.9934 144.094 36.173 123.262 36.167 100.363V45.9013C36.167 45.4845 36.4256 45.1114 36.8159 44.965L108.149 18.215C108.376 18.1301 108.625 18.1301 108.851 18.215L180.185 44.965C180.575 45.1114 180.834 45.4845 180.834 45.9013V100.363C180.834 123.268 174.013 144.103 160.372 162.868C146.785 181.559 129.575 193.555 108.745 198.855Z" fill="#780015"/>
</svg>
