<svg width="41" height="77" viewBox="0 0 41 77" fill="none" xmlns="http://www.w3.org/2000/svg">
<g clip-path="url(#clip0_140_759)">
<path d="M38.8419 72.7222C57.9107 72.7222 73.3682 57.4009 73.3682 38.5C73.3682 19.5991 57.9107 4.27777 38.8419 4.27777C19.773 4.27777 4.31554 19.5991 4.31554 38.5C4.31554 57.4009 19.773 72.7222 38.8419 72.7222ZM38.8419 65.8778C31.5163 65.8778 24.4908 62.9933 19.3108 57.859C14.1309 52.7247 11.2208 45.761 11.2208 38.5C11.2208 31.239 14.1309 24.2753 19.3108 19.141C24.4908 14.0067 31.5163 11.1222 38.8419 11.1222C46.1674 11.1222 53.1929 14.0067 58.3729 19.141C63.5528 24.2753 66.4629 31.239 66.4629 38.5C66.4629 45.761 63.5528 52.7247 58.3729 57.859C53.1929 62.9933 46.1674 65.8778 38.8419 65.8778ZM35.3892 38.5H21.5787V45.3444H42.2945V21.3889H35.3892V38.5Z" fill="#6E0000"/>
</g>
<defs>
<clipPath id="clip0_140_759">
<rect width="41" height="77" fill="white" transform="matrix(-1 0 0 1 41 0)"/>
</clipPath>
</defs>
</svg>
