<svg width="41" height="77" viewBox="0 0 41 77" fill="none" xmlns="http://www.w3.org/2000/svg">
<g clip-path="url(#clip0_140_753)">
<path d="M50.5831 9.625H26.5941L9.64746 26.5329V50.4671L26.5941 67.375H50.5831L67.5298 50.4671V26.5329L50.5831 9.625ZM61.0984 47.8042L47.9141 60.9583H29.2631L16.0788 47.8042V29.1958L29.2631 16.0417H47.9141L61.0984 29.1958V47.8042Z" fill="#6E0000"/>
<path d="M38.5868 54.5417C40.3628 54.5417 41.8025 53.1052 41.8025 51.3333C41.8025 49.5614 40.3628 48.125 38.5868 48.125C36.8108 48.125 35.3711 49.5614 35.3711 51.3333C35.3711 53.1052 36.8108 54.5417 38.5868 54.5417Z" fill="#6E0000"/>
<path d="M35.3711 22.4552H41.8025V44.9135H35.3711V22.4552Z" fill="#6E0000"/>
<path d="M50.5831 9.625H26.5941L9.64746 26.5329V50.4671L26.5941 67.375H50.5831L67.5298 50.4671V26.5329L50.5831 9.625ZM61.0984 47.8042L47.9141 60.9583H29.2631L16.0788 47.8042V29.1958L29.2631 16.0417H47.9141L61.0984 29.1958V47.8042Z" fill="#6E0000"/>
<path d="M35.3711 22.4552H41.8025V44.9135H35.3711V22.4552Z" fill="#6E0000"/>
</g>
<defs>
<clipPath id="clip0_140_753">
<rect width="41" height="77" fill="white"/>
</clipPath>
</defs>
</svg>
