<svg width="39" height="92" viewBox="0 0 39 92" fill="none" xmlns="http://www.w3.org/2000/svg">
<g clip-path="url(#clip0_140_761)">
<path d="M35.416 46C31.1707 46 27.5365 44.4987 24.5133 41.4959C21.4901 38.4931 19.9785 34.8834 19.9785 30.6667C19.9785 26.45 21.4901 22.8403 24.5133 19.8375C27.5365 16.8348 31.1707 15.3334 35.416 15.3334C39.6613 15.3334 43.2956 16.8348 46.3188 19.8375C49.3419 22.8403 50.8535 26.45 50.8535 30.6667C50.8535 34.8834 49.3419 38.4931 46.3188 41.4959C43.2956 44.4987 39.6613 46 35.416 46ZM4.54102 76.6667V65.9334C4.54102 63.7612 5.10449 61.764 6.23142 59.9419C7.35836 58.1198 8.85322 56.7308 10.716 55.775C14.704 53.7945 18.7564 52.3084 22.873 51.3169C26.9897 50.3253 31.1707 49.8308 35.416 49.8334C39.6613 49.8334 43.8423 50.3292 47.959 51.3207C52.0757 52.3123 56.128 53.797 60.116 55.775C61.9814 56.7334 63.4775 58.1236 64.6045 59.9457C65.7314 61.7678 66.2936 63.7637 66.291 65.9334V76.6667H4.54102ZM12.2598 69H58.5723V65.9334C58.5723 65.2306 58.3947 64.5917 58.0397 64.0167C57.6846 63.4417 57.2189 62.9945 56.6426 62.675C53.1691 60.95 49.6635 59.6569 46.1258 58.7957C42.588 57.9345 39.0181 57.5026 35.416 57.5C31.8139 57.5 28.244 57.9319 24.7063 58.7957C21.1685 59.6595 17.6629 60.9526 14.1895 62.675C13.6105 62.9945 13.1436 63.4417 12.7885 64.0167C12.4334 64.5917 12.2572 65.2306 12.2598 65.9334V69ZM35.416 38.3334C37.5387 38.3334 39.3564 37.582 40.8693 36.0794C42.3822 34.5767 43.1373 32.7725 43.1348 30.6667C43.1348 28.5584 42.3783 26.7529 40.8655 25.2502C39.3526 23.7475 37.5361 22.9975 35.416 23C33.2934 23 31.4756 23.7514 29.9627 25.254C28.4498 26.7567 27.6947 28.5609 27.6973 30.6667C27.6973 32.775 28.4537 34.5805 29.9666 36.0832C31.4795 37.5859 33.2959 38.3359 35.416 38.3334Z" fill="#6E0000"/>
</g>
<defs>
<clipPath id="clip0_140_761">
<rect width="39" height="92" fill="white"/>
</clipPath>
</defs>
</svg>
