<svg width="53" height="53" viewBox="0 0 53 53" fill="none" xmlns="http://www.w3.org/2000/svg">
<path d="M46.0649 4.45483H6.83634C6.1934 4.45483 5.57678 4.71024 5.12215 5.16488C4.66752 5.61951 4.41211 6.23612 4.41211 6.87907V46.1076C4.41211 46.7505 4.66752 47.3671 5.12215 47.8218C5.57678 48.2764 6.1934 48.5318 6.83634 48.5318H27.9492V31.452H22.2192V24.8404H27.9492V19.8818C27.8305 18.7176 27.968 17.5416 28.3519 16.4361C28.7358 15.3307 29.357 14.3227 30.1717 13.4827C30.9865 12.6427 31.9752 11.9912 33.0684 11.5738C34.1616 11.1564 35.3329 10.9832 36.5002 11.0664C38.2155 11.0558 39.93 11.1441 41.6351 11.3308V17.2812H38.131C35.3541 17.2812 34.8252 18.6035 34.8252 20.5209V24.7743H41.4368L40.5773 31.3859H34.8252V48.5318H46.0649C46.3832 48.5318 46.6984 48.4691 46.9926 48.3473C47.2867 48.2255 47.5539 48.0469 47.7791 47.8218C48.0042 47.5967 48.1827 47.3294 48.3046 47.0353C48.4264 46.7412 48.4891 46.4259 48.4891 46.1076V6.87907C48.4891 6.56071 48.4264 6.24548 48.3046 5.95135C48.1827 5.65723 48.0042 5.38999 47.7791 5.16488C47.5539 4.93977 47.2867 4.7612 46.9926 4.63937C46.6984 4.51754 46.3832 4.45483 46.0649 4.45483Z" fill="black"/>
</svg>
