<svg width="46" height="46" viewBox="0 0 46 46" fill="none" xmlns="http://www.w3.org/2000/svg">
<path d="M13.7106 0.854248H32.4345C39.5675 0.854248 45.3629 6.64974 45.3629 13.7827V32.5066C45.3629 35.9354 44.0008 39.2238 41.5763 41.6483C39.1518 44.0729 35.8634 45.435 32.4345 45.435H13.7106C6.57772 45.435 0.782227 39.6395 0.782227 32.5066V13.7827C0.782227 10.3538 2.14432 7.06544 4.56887 4.64089C6.99342 2.21634 10.2818 0.854248 13.7106 0.854248ZM13.2648 5.31232C11.1366 5.31232 9.09552 6.15776 7.59063 7.66265C6.08574 9.16754 5.2403 11.2086 5.2403 13.3368V32.9524C5.2403 37.3881 8.82905 40.9769 13.2648 40.9769H32.8803C35.0086 40.9769 37.0497 40.1315 38.5545 38.6266C40.0594 37.1217 40.9049 35.0806 40.9049 32.9524V13.3368C40.9049 8.90107 37.3161 5.31232 32.8803 5.31232H13.2648ZM34.775 8.65587C35.514 8.65587 36.2227 8.94943 36.7452 9.47196C37.2678 9.99449 37.5613 10.7032 37.5613 11.4422C37.5613 12.1811 37.2678 12.8898 36.7452 13.4124C36.2227 13.9349 35.514 14.2285 34.775 14.2285C34.0361 14.2285 33.3273 13.9349 32.8048 13.4124C32.2823 12.8898 31.9887 12.1811 31.9887 11.4422C31.9887 10.7032 32.2823 9.99449 32.8048 9.47196C33.3273 8.94943 34.0361 8.65587 34.775 8.65587ZM23.0726 11.9994C26.0285 11.9994 28.8633 13.1736 30.9534 15.2638C33.0435 17.3539 34.2178 20.1887 34.2178 23.1446C34.2178 26.1005 33.0435 28.9353 30.9534 31.0254C28.8633 33.1156 26.0285 34.2898 23.0726 34.2898C20.1167 34.2898 17.2819 33.1156 15.1918 31.0254C13.1016 28.9353 11.9274 26.1005 11.9274 23.1446C11.9274 20.1887 13.1016 17.3539 15.1918 15.2638C17.2819 13.1736 20.1167 11.9994 23.0726 11.9994ZM23.0726 16.4575C21.2991 16.4575 19.5982 17.162 18.3441 18.4161C17.09 19.6702 16.3855 21.3711 16.3855 23.1446C16.3855 24.9181 17.09 26.619 18.3441 27.8731C19.5982 29.1272 21.2991 29.8317 23.0726 29.8317C24.8461 29.8317 26.547 29.1272 27.8011 27.8731C29.0552 26.619 29.7597 24.9181 29.7597 23.1446C29.7597 21.3711 29.0552 19.6702 27.8011 18.4161C26.547 17.162 24.8461 16.4575 23.0726 16.4575Z" fill="black"/>
</svg>
