<svg width="27" height="26" viewBox="0 0 27 26" fill="none" xmlns="http://www.w3.org/2000/svg">
<path d="M13.5 11.7905C11.9096 11.7905 10.5474 11.2128 9.41336 10.0573C8.27936 8.90182 7.713 7.51447 7.71429 5.89525C7.71429 4.2734 8.28064 2.88474 9.41336 1.72927C10.5461 0.576423 11.9083 0 13.5 0C15.0917 0 16.4539 0.576423 17.5866 1.72927C18.7194 2.88474 19.2857 4.2734 19.2857 5.89525C19.2857 7.51578 18.7194 8.90313 17.5866 10.0573C16.4539 11.2114 15.0917 11.7892 13.5 11.7905ZM0 25.998V22.7655C0 21.9546 0.231429 21.196 0.694286 20.4899C1.15843 19.7825 1.782 19.2336 2.565 18.8432C4.38557 17.9536 6.20679 17.2868 8.02864 16.8427C9.85179 16.3973 11.6756 16.1746 13.5 16.1746C15.3257 16.1746 17.1495 16.3973 18.9714 16.8427C20.7932 17.2881 22.6138 17.955 24.4331 18.8432C25.2174 19.2336 25.8409 19.7825 26.3038 20.4899C26.7679 21.196 27 21.9546 27 22.7655V26L0 25.998ZM1.92857 24.033H25.0714V22.7635C25.0714 22.3286 24.9339 21.9192 24.6587 21.5353C24.3823 21.1528 24.0004 20.8292 23.5131 20.5646C21.9266 19.7812 20.2899 19.1812 18.603 18.7646C16.9187 18.3467 15.2177 18.1377 13.5 18.1377C11.7836 18.1377 10.0826 18.3467 8.397 18.7646C6.71014 19.1812 5.07343 19.7812 3.48686 20.5646C2.99829 20.8292 2.61643 21.1528 2.34129 21.5353C2.06614 21.9192 1.92857 22.3292 1.92857 22.7655V24.033ZM13.5 9.82541C14.5607 9.82541 15.4691 9.44025 16.2251 8.66994C16.9811 7.89963 17.3584 6.97473 17.3571 5.89525C17.3571 4.81445 16.9798 3.8889 16.2251 3.11859C15.4704 2.34827 14.562 1.96377 13.5 1.96508C12.4393 1.96508 11.5316 2.34958 10.7769 3.11859C10.0221 3.88759 9.64414 4.81314 9.64286 5.89525C9.64286 6.97604 10.0209 7.90094 10.7769 8.66994C11.5329 9.43894 12.4406 9.8241 13.5 9.82541Z" fill="#780015"/>
</svg>
